# This file uses meters as units for non-parametric coordinates.

mtllib cuadroCorregido.mtl
g default
v -10.000000 0.000000 1.000000
v 10.000000 0.000000 1.000000
v -10.000000 5.000000 1.000000
v 10.000000 5.000000 1.000000
v -10.000000 5.000000 -1.000000
v 10.000000 5.000000 -1.000000
v -10.000000 0.000000 -1.000000
v 10.000000 0.000000 -1.000000
v -15.000000 -0.000001 1.000000
v -10.000000 -0.000001 1.000000
v -15.000000 30.000000 1.000000
v -10.000000 30.000000 1.000000
v -15.000000 30.000000 -1.000000
v -10.000000 30.000000 -1.000000
v -15.000000 -0.000001 -1.000000
v -10.000000 -0.000001 -1.000000
v 5.030064 34.905853 1.039204
v -14.969936 34.905853 1.039204
v 5.030064 29.905851 1.039204
v -14.969936 29.905851 1.039204
v 5.030064 29.905851 -0.960796
v -14.969936 29.905851 -0.960796
v 5.030064 34.905853 -0.960796
v -14.969936 34.905853 -0.960796
v 10.030064 34.905853 1.039204
v 5.030064 34.905853 1.039204
v 10.030064 4.905849 1.039204
v 5.030064 4.905849 1.039204
v 10.030064 4.905849 -0.960796
v 5.030064 4.905849 -0.960796
v 10.030064 34.905853 -0.960796
v 5.030064 34.905853 -0.960796
vt 2.006427 0.002522
vt 2.006427 1.002522
vt 1.006427 0.002522
vt 1.006427 1.002522
vt 0.006427 0.002522
vt 0.006427 1.002522
vt -0.993573 0.002522
vt -0.993573 1.002522
vt -1.993573 0.002522
vt -1.993573 1.002522
vt 2.006427 2.002521
vt 1.006427 2.002521
vt 2.006427 -0.997478
vt 1.006427 -0.997478
vt 0.000125 -0.995904
vt 1.000125 -0.995904
vt 1.000125 0.004096
vt 0.000125 0.004096
vt 1.000125 1.004096
vt 0.000125 1.004096
vt 1.000125 2.004096
vt 0.000125 2.004096
vt 1.000125 3.004096
vt 0.000125 3.004096
vt 2.000125 -0.995904
vt 2.000125 0.004096
vt -0.999875 -0.995904
vt -0.999875 0.004096
vt 1.007229 0.368784
vt 1.007229 0.618784
vt 0.757229 0.618784
vt 0.757229 0.368784
vt 0.507229 0.618784
vt 0.507229 0.368784
vt 0.257229 0.618784
vt 0.257229 0.368784
vt 0.007229 0.618784
vt 0.007229 0.368784
vt 1.007229 0.868784
vt 0.757229 0.868784
vt 1.007229 0.118784
vt 0.757229 0.118784
vt 0.369948 0.003203
vt 0.619948 0.003203
vt 0.619948 0.253203
vt 0.369948 0.253203
vt 0.619948 0.503203
vt 0.369948 0.503203
vt 0.619948 0.753203
vt 0.369948 0.753203
vt 0.619948 1.003203
vt 0.369948 1.003203
vt 0.869948 0.003203
vt 0.869948 0.253203
vt 0.119948 0.003203
vt 0.119948 0.253203
vn 0.000000 0.000000 1.000000
vn 0.000000 0.000000 1.000000
vn 0.000000 0.000000 1.000000
vn 0.000000 0.000000 1.000000
vn 0.000000 1.000000 0.000000
vn 0.000000 1.000000 0.000000
vn 0.000000 1.000000 0.000000
vn 0.000000 1.000000 0.000000
vn 0.000000 0.000000 -1.000000
vn 0.000000 0.000000 -1.000000
vn 0.000000 0.000000 -1.000000
vn 0.000000 0.000000 -1.000000
vn 0.000000 -1.000000 0.000000
vn 0.000000 -1.000000 0.000000
vn 0.000000 -1.000000 0.000000
vn 0.000000 -1.000000 0.000000
vn 1.000000 0.000000 0.000000
vn 1.000000 0.000000 0.000000
vn 1.000000 0.000000 0.000000
vn 1.000000 0.000000 0.000000
vn -1.000000 0.000000 0.000000
vn -1.000000 0.000000 0.000000
vn -1.000000 0.000000 0.000000
vn -1.000000 0.000000 0.000000
vn 0.000000 0.000000 1.000000
vn 0.000000 0.000000 1.000000
vn 0.000000 0.000000 1.000000
vn 0.000000 0.000000 1.000000
vn 0.000000 1.000000 0.000000
vn 0.000000 1.000000 0.000000
vn 0.000000 1.000000 0.000000
vn 0.000000 1.000000 0.000000
vn 0.000000 0.000000 -1.000000
vn 0.000000 0.000000 -1.000000
vn 0.000000 0.000000 -1.000000
vn 0.000000 0.000000 -1.000000
vn 0.000000 -1.000000 0.000000
vn 0.000000 -1.000000 0.000000
vn 0.000000 -1.000000 0.000000
vn 0.000000 -1.000000 0.000000
vn 1.000000 0.000000 0.000000
vn 1.000000 0.000000 0.000000
vn 1.000000 0.000000 0.000000
vn 1.000000 0.000000 0.000000
vn -1.000000 0.000000 0.000000
vn -1.000000 0.000000 0.000000
vn -1.000000 0.000000 0.000000
vn -1.000000 0.000000 0.000000
vn 0.000000 0.000000 1.000000
vn 0.000000 0.000000 1.000000
vn 0.000000 0.000000 1.000000
vn 0.000000 0.000000 1.000000
vn 0.000000 -1.000000 0.000000
vn 0.000000 -1.000000 0.000000
vn 0.000000 -1.000000 0.000000
vn 0.000000 -1.000000 0.000000
vn 0.000000 0.000000 -1.000000
vn 0.000000 0.000000 -1.000000
vn 0.000000 0.000000 -1.000000
vn 0.000000 0.000000 -1.000000
vn 0.000000 1.000000 0.000000
vn 0.000000 1.000000 0.000000
vn 0.000000 1.000000 0.000000
vn 0.000000 1.000000 0.000000
vn -1.000000 0.000000 0.000000
vn -1.000000 0.000000 0.000000
vn -1.000000 0.000000 0.000000
vn -1.000000 0.000000 0.000000
vn 1.000000 0.000000 0.000000
vn 1.000000 0.000000 0.000000
vn 1.000000 0.000000 0.000000
vn 1.000000 0.000000 0.000000
vn 0.000000 0.000000 1.000000
vn 0.000000 0.000000 1.000000
vn 0.000000 0.000000 1.000000
vn 0.000000 0.000000 1.000000
vn 0.000000 -1.000000 0.000000
vn 0.000000 -1.000000 0.000000
vn 0.000000 -1.000000 0.000000
vn 0.000000 -1.000000 0.000000
vn 0.000000 0.000000 -1.000000
vn 0.000000 0.000000 -1.000000
vn 0.000000 0.000000 -1.000000
vn 0.000000 0.000000 -1.000000
vn 0.000000 1.000000 0.000000
vn 0.000000 1.000000 0.000000
vn 0.000000 1.000000 0.000000
vn 0.000000 1.000000 0.000000
vn -1.000000 0.000000 0.000000
vn -1.000000 0.000000 0.000000
vn -1.000000 0.000000 0.000000
vn -1.000000 0.000000 0.000000
vn 1.000000 0.000000 0.000000
vn 1.000000 0.000000 0.000000
vn 1.000000 0.000000 0.000000
vn 1.000000 0.000000 0.000000
s 1
g pCube7
usemtl initialShadingGroup
f 1/1/1 2/2/2 3/3/3
f 3/3/3 2/2/2 4/4/4
s 2
f 3/3/5 4/4/6 5/5/7
f 5/5/7 4/4/6 6/6/8
s 3
f 5/5/9 6/6/10 7/7/11
f 7/7/11 6/6/10 8/8/12
s 4
f 7/7/13 8/8/14 1/9/15
f 1/9/15 8/8/14 2/10/16
s 5
f 2/2/17 8/11/18 4/4/19
f 4/4/19 8/11/18 6/12/20
s 6
f 7/13/21 1/1/22 5/14/23
f 5/14/23 1/1/22 3/3/24
s 7
f 9/15/25 10/16/26 11/18/27
f 11/18/27 10/16/26 12/17/28
s 8
f 11/18/29 12/17/30 13/20/31
f 13/20/31 12/17/30 14/19/32
s 9
f 13/20/33 14/19/34 15/22/35
f 15/22/35 14/19/34 16/21/36
s 10
f 15/22/37 16/21/38 9/24/39
f 9/24/39 16/21/38 10/23/40
s 11
f 10/16/41 16/25/42 12/17/43
f 12/17/43 16/25/42 14/26/44
s 12
f 15/27/45 9/15/46 13/28/47
f 13/28/47 9/15/46 11/18/48
s 13
f 17/29/49 18/30/50 19/32/51
f 19/32/51 18/30/50 20/31/52
s 14
f 19/32/53 20/31/54 21/34/55
f 21/34/55 20/31/54 22/33/56
s 15
f 21/34/57 22/33/58 23/36/59
f 23/36/59 22/33/58 24/35/60
s 16
f 23/36/61 24/35/62 17/38/63
f 17/38/63 24/35/62 18/37/64
s 17
f 18/30/65 24/39/66 20/31/67
f 20/31/67 24/39/66 22/40/68
s 18
f 23/41/69 17/29/70 21/42/71
f 21/42/71 17/29/70 19/32/72
s 19
f 25/43/73 26/44/74 27/46/75
f 27/46/75 26/44/74 28/45/76
s 20
f 27/46/77 28/45/78 29/48/79
f 29/48/79 28/45/78 30/47/80
s 21
f 29/48/81 30/47/82 31/50/83
f 31/50/83 30/47/82 32/49/84
s 22
f 31/50/85 32/49/86 25/52/87
f 25/52/87 32/49/86 26/51/88
s 23
f 26/44/89 32/53/90 28/45/91
f 28/45/91 32/53/90 30/54/92
s 24
f 31/55/93 25/43/94 29/56/95
f 29/56/95 25/43/94 27/46/96
g default
v -10.692284 4.577057 0.270978
v -9.056261 4.577057 0.270978
v -7.420239 4.577057 0.270978
v -5.784217 4.577057 0.270978
v -4.148194 4.577057 0.270978
v -2.512172 4.577057 0.270978
v -0.876149 4.577057 0.270978
v 0.759873 4.577057 0.270978
v 2.395896 4.577057 0.270978
v 4.031918 4.577057 0.270978
v 5.667940 4.577057 0.270978
v -10.692284 7.137965 0.216783
v -9.056261 7.137965 0.216783
v -7.420239 7.137965 0.216783
v -5.784217 7.137965 0.216783
v -4.148194 7.137965 0.216783
v -2.512172 7.137965 0.216783
v -0.876149 7.137965 0.216783
v 0.759873 7.137965 0.216783
v 2.395896 7.137965 0.216783
v 4.031918 7.137965 0.216783
v 5.667940 7.137965 0.216783
v -10.692284 9.698873 0.162587
v -9.056261 9.698873 0.162587
v -7.420239 9.698873 0.162587
v -5.784217 9.698873 0.162587
v -4.148194 9.698873 0.162587
v -2.512172 9.698873 0.162587
v -0.876149 9.698873 0.162587
v 0.759873 9.698873 0.162587
v 2.395896 9.698873 0.162587
v 4.031918 9.698873 0.162587
v 5.667940 9.698873 0.162587
v -10.692284 12.259782 0.108391
v -9.056261 12.259782 0.108391
v -7.420239 12.259782 0.108391
v -5.784217 12.259782 0.108391
v -4.148194 12.259782 0.108391
v -2.512172 12.259782 0.108391
v -0.876149 12.259782 0.108391
v 0.759873 12.259782 0.108391
v 2.395896 12.259782 0.108391
v 4.031918 12.259782 0.108391
v 5.667940 12.259782 0.108391
v -10.692284 14.820690 0.054196
v -9.056261 14.820690 0.054196
v -7.420239 14.820690 0.054196
v -5.784217 14.820690 0.054196
v -4.148194 14.820690 0.054196
v -2.512172 14.820690 0.054196
v -0.876149 14.820690 0.054196
v 0.759873 14.820690 0.054196
v 2.395896 14.820690 0.054196
v 4.031918 14.820690 0.054196
v 5.667940 14.820690 0.054196
v -10.692284 17.381598 0.000000
v -9.056261 17.381598 0.000000
v -7.420239 17.381598 0.000000
v -5.784217 17.381598 0.000000
v -4.148194 17.381598 0.000000
v -2.512172 17.381598 0.000000
v -0.876149 17.381598 0.000000
v 0.759873 17.381598 0.000000
v 2.395896 17.381598 0.000000
v 4.031918 17.381598 0.000000
v 5.667940 17.381598 0.000000
v -10.692284 19.942506 -0.054196
v -9.056261 19.942506 -0.054196
v -7.420239 19.942506 -0.054196
v -5.784217 19.942506 -0.054196
v -4.148194 19.942506 -0.054196
v -2.512172 19.942506 -0.054196
v -0.876149 19.942506 -0.054196
v 0.759873 19.942506 -0.054196
v 2.395896 19.942506 -0.054196
v 4.031918 19.942506 -0.054196
v 5.667940 19.942506 -0.054196
v -10.692284 22.503414 -0.108391
v -9.056261 22.503414 -0.108391
v -7.420239 22.503414 -0.108391
v -5.784217 22.503414 -0.108391
v -4.148194 22.503414 -0.108391
v -2.512172 22.503414 -0.108391
v -0.876149 22.503414 -0.108391
v 0.759873 22.503414 -0.108391
v 2.395896 22.503414 -0.108391
v 4.031918 22.503414 -0.108391
v 5.667940 22.503414 -0.108391
v -10.692284 25.064323 -0.162587
v -9.056261 25.064323 -0.162587
v -7.420239 25.064323 -0.162587
v -5.784217 25.064323 -0.162587
v -4.148194 25.064323 -0.162587
v -2.512172 25.064323 -0.162587
v -0.876149 25.064323 -0.162587
v 0.759873 25.064323 -0.162587
v 2.395896 25.064323 -0.162587
v 4.031918 25.064323 -0.162587
v 5.667940 25.064323 -0.162587
v -10.692284 27.625231 -0.216783
v -9.056261 27.625231 -0.216783
v -7.420239 27.625231 -0.216783
v -5.784217 27.625231 -0.216783
v -4.148194 27.625231 -0.216783
v -2.512172 27.625231 -0.216783
v -0.876149 27.625231 -0.216783
v 0.759873 27.625231 -0.216783
v 2.395896 27.625231 -0.216783
v 4.031918 27.625231 -0.216783
v 5.667940 27.625231 -0.216783
v -10.692284 30.186139 -0.270978
v -9.056261 30.186139 -0.270978
v -7.420239 30.186139 -0.270978
v -5.784217 30.186139 -0.270978
v -4.148194 30.186139 -0.270978
v -2.512172 30.186139 -0.270978
v -0.876149 30.186139 -0.270978
v 0.759873 30.186139 -0.270978
v 2.395896 30.186139 -0.270978
v 4.031918 30.186139 -0.270978
v 5.667940 30.186139 -0.270978
vt 0.000000 0.000000
vt 0.100000 0.000000
vt 0.200000 0.000000
vt 0.300000 0.000000
vt 0.400000 0.000000
vt 0.500000 0.000000
vt 0.600000 0.000000
vt 0.700000 0.000000
vt 0.800000 0.000000
vt 0.900000 0.000000
vt 1.000000 0.000000
vt 0.000000 0.100000
vt 0.100000 0.100000
vt 0.200000 0.100000
vt 0.300000 0.100000
vt 0.400000 0.100000
vt 0.500000 0.100000
vt 0.600000 0.100000
vt 0.700000 0.100000
vt 0.800000 0.100000
vt 0.900000 0.100000
vt 1.000000 0.100000
vt 0.000000 0.200000
vt 0.100000 0.200000
vt 0.200000 0.200000
vt 0.300000 0.200000
vt 0.400000 0.200000
vt 0.500000 0.200000
vt 0.600000 0.200000
vt 0.700000 0.200000
vt 0.800000 0.200000
vt 0.900000 0.200000
vt 1.000000 0.200000
vt 0.000000 0.300000
vt 0.100000 0.300000
vt 0.200000 0.300000
vt 0.300000 0.300000
vt 0.400000 0.300000
vt 0.500000 0.300000
vt 0.600000 0.300000
vt 0.700000 0.300000
vt 0.800000 0.300000
vt 0.900000 0.300000
vt 1.000000 0.300000
vt 0.000000 0.400000
vt 0.100000 0.400000
vt 0.200000 0.400000
vt 0.300000 0.400000
vt 0.400000 0.400000
vt 0.500000 0.400000
vt 0.600000 0.400000
vt 0.700000 0.400000
vt 0.800000 0.400000
vt 0.900000 0.400000
vt 1.000000 0.400000
vt 0.000000 0.500000
vt 0.100000 0.500000
vt 0.200000 0.500000
vt 0.300000 0.500000
vt 0.400000 0.500000
vt 0.500000 0.500000
vt 0.600000 0.500000
vt 0.700000 0.500000
vt 0.800000 0.500000
vt 0.900000 0.500000
vt 1.000000 0.500000
vt 0.000000 0.600000
vt 0.100000 0.600000
vt 0.200000 0.600000
vt 0.300000 0.600000
vt 0.400000 0.600000
vt 0.500000 0.600000
vt 0.600000 0.600000
vt 0.700000 0.600000
vt 0.800000 0.600000
vt 0.900000 0.600000
vt 1.000000 0.600000
vt 0.000000 0.700000
vt 0.100000 0.700000
vt 0.200000 0.700000
vt 0.300000 0.700000
vt 0.400000 0.700000
vt 0.500000 0.700000
vt 0.600000 0.700000
vt 0.700000 0.700000
vt 0.800000 0.700000
vt 0.900000 0.700000
vt 1.000000 0.700000
vt 0.000000 0.800000
vt 0.100000 0.800000
vt 0.200000 0.800000
vt 0.300000 0.800000
vt 0.400000 0.800000
vt 0.500000 0.800000
vt 0.600000 0.800000
vt 0.700000 0.800000
vt 0.800000 0.800000
vt 0.900000 0.800000
vt 1.000000 0.800000
vt 0.000000 0.900000
vt 0.100000 0.900000
vt 0.200000 0.900000
vt 0.300000 0.900000
vt 0.400000 0.900000
vt 0.500000 0.900000
vt 0.600000 0.900000
vt 0.700000 0.900000
vt 0.800000 0.900000
vt 0.900000 0.900000
vt 1.000000 0.900000
vt 0.000000 1.000000
vt 0.100000 1.000000
vt 0.200000 1.000000
vt 0.300000 1.000000
vt 0.400000 1.000000
vt 0.500000 1.000000
vt 0.600000 1.000000
vt 0.700000 1.000000
vt 0.800000 1.000000
vt 0.900000 1.000000
vt 1.000000 1.000000
vn 0.000000 0.021158 0.999776
vn 0.000000 0.021158 0.999776
vn 0.000000 0.021158 0.999776
vn 0.000000 0.021158 0.999776
vn 0.000000 0.021158 0.999776
vn 0.000000 0.021158 0.999776
vn 0.000000 0.021158 0.999776
vn 0.000000 0.021158 0.999776
vn 0.000000 0.021158 0.999776
vn 0.000000 0.021158 0.999776
vn 0.000000 0.021158 0.999776
vn 0.000000 0.021158 0.999776
vn 0.000000 0.021158 0.999776
vn 0.000000 0.021158 0.999776
vn 0.000000 0.021158 0.999776
vn 0.000000 0.021158 0.999776
vn 0.000000 0.021158 0.999776
vn 0.000000 0.021158 0.999776
vn 0.000000 0.021158 0.999776
vn 0.000000 0.021158 0.999776
vn 0.000000 0.021158 0.999776
vn 0.000000 0.021158 0.999776
vn 0.000000 0.021158 0.999776
vn 0.000000 0.021158 0.999776
vn 0.000000 0.021158 0.999776
vn 0.000000 0.021158 0.999776
vn 0.000000 0.021158 0.999776
vn 0.000000 0.021158 0.999776
vn 0.000000 0.021158 0.999776
vn 0.000000 0.021158 0.999776
vn 0.000000 0.021158 0.999776
vn 0.000000 0.021158 0.999776
vn 0.000000 0.021158 0.999776
vn 0.000000 0.021158 0.999776
vn 0.000000 0.021158 0.999776
vn 0.000000 0.021158 0.999776
vn 0.000000 0.021158 0.999776
vn 0.000000 0.021158 0.999776
vn 0.000000 0.021158 0.999776
vn 0.000000 0.021158 0.999776
vn 0.000000 0.021158 0.999776
vn 0.000000 0.021158 0.999776
vn 0.000000 0.021158 0.999776
vn 0.000000 0.021158 0.999776
vn 0.000000 0.021158 0.999776
vn 0.000000 0.021158 0.999776
vn 0.000000 0.021158 0.999776
vn 0.000000 0.021158 0.999776
vn 0.000000 0.021158 0.999776
vn 0.000000 0.021158 0.999776
vn 0.000000 0.021158 0.999776
vn 0.000000 0.021158 0.999776
vn 0.000000 0.021158 0.999776
vn 0.000000 0.021158 0.999776
vn 0.000000 0.021158 0.999776
vn 0.000000 0.021158 0.999776
vn 0.000000 0.021158 0.999776
vn 0.000000 0.021158 0.999776
vn 0.000000 0.021158 0.999776
vn 0.000000 0.021158 0.999776
vn 0.000000 0.021158 0.999776
vn 0.000000 0.021158 0.999776
vn 0.000000 0.021158 0.999776
vn 0.000000 0.021158 0.999776
vn 0.000000 0.021158 0.999776
vn 0.000000 0.021158 0.999776
vn 0.000000 0.021158 0.999776
vn 0.000000 0.021158 0.999776
vn 0.000000 0.021158 0.999776
vn 0.000000 0.021158 0.999776
vn 0.000000 0.021158 0.999776
vn 0.000000 0.021158 0.999776
vn 0.000000 0.021158 0.999776
vn 0.000000 0.021158 0.999776
vn 0.000000 0.021158 0.999776
vn 0.000000 0.021158 0.999776
vn 0.000000 0.021158 0.999776
vn 0.000000 0.021158 0.999776
vn 0.000000 0.021158 0.999776
vn 0.000000 0.021158 0.999776
vn 0.000000 0.021158 0.999776
vn 0.000000 0.021158 0.999776
vn 0.000000 0.021158 0.999776
vn 0.000000 0.021158 0.999776
vn 0.000000 0.021158 0.999776
vn 0.000000 0.021158 0.999776
vn 0.000000 0.021158 0.999776
vn 0.000000 0.021158 0.999776
vn 0.000000 0.021158 0.999776
vn 0.000000 0.021158 0.999776
vn 0.000000 0.021158 0.999776
vn 0.000000 0.021158 0.999776
vn 0.000000 0.021158 0.999776
vn 0.000000 0.021158 0.999776
vn 0.000000 0.021158 0.999776
vn 0.000000 0.021158 0.999776
vn 0.000000 0.021158 0.999776
vn 0.000000 0.021158 0.999776
vn 0.000000 0.021158 0.999776
vn 0.000000 0.021158 0.999776
vn 0.000000 0.021158 0.999776
vn 0.000000 0.021158 0.999776
vn 0.000000 0.021158 0.999776
vn 0.000000 0.021158 0.999776
vn 0.000000 0.021158 0.999776
vn 0.000000 0.021158 0.999776
vn 0.000000 0.021158 0.999776
vn 0.000000 0.021158 0.999776
vn 0.000000 0.021158 0.999776
vn 0.000000 0.021158 0.999776
vn 0.000000 0.021158 0.999776
vn 0.000000 0.021158 0.999776
vn 0.000000 0.021158 0.999776
vn 0.000000 0.021158 0.999776
vn 0.000000 0.021158 0.999776
vn 0.000000 0.021158 0.999776
vn 0.000000 0.021158 0.999776
vn 0.000000 0.021158 0.999776
vn 0.000000 0.021158 0.999776
vn 0.000000 0.021158 0.999776
vn 0.000000 0.021158 0.999776
s 1
g pPlane1
usemtl lambert3SG
f 33/57/97 34/58/98 44/68/99
f 44/68/99 34/58/98 45/69/100
f 34/58/98 35/59/101 45/69/100
f 45/69/100 35/59/101 46/70/102
f 35/59/101 36/60/103 46/70/102
f 46/70/102 36/60/103 47/71/104
f 36/60/103 37/61/105 47/71/104
f 47/71/104 37/61/105 48/72/106
f 37/61/105 38/62/107 48/72/106
f 48/72/106 38/62/107 49/73/108
f 38/62/107 39/63/109 49/73/108
f 49/73/108 39/63/109 50/74/110
f 39/63/109 40/64/111 50/74/110
f 50/74/110 40/64/111 51/75/112
f 40/64/111 41/65/113 51/75/112
f 51/75/112 41/65/113 52/76/114
f 41/65/113 42/66/115 52/76/114
f 52/76/114 42/66/115 53/77/116
f 42/66/115 43/67/117 53/77/116
f 53/77/116 43/67/117 54/78/118
f 44/68/99 45/69/100 55/79/119
f 55/79/119 45/69/100 56/80/120
f 45/69/100 46/70/102 56/80/120
f 56/80/120 46/70/102 57/81/121
f 46/70/102 47/71/104 57/81/121
f 57/81/121 47/71/104 58/82/122
f 47/71/104 48/72/106 58/82/122
f 58/82/122 48/72/106 59/83/123
f 48/72/106 49/73/108 59/83/123
f 59/83/123 49/73/108 60/84/124
f 49/73/108 50/74/110 60/84/124
f 60/84/124 50/74/110 61/85/125
f 50/74/110 51/75/112 61/85/125
f 61/85/125 51/75/112 62/86/126
f 51/75/112 52/76/114 62/86/126
f 62/86/126 52/76/114 63/87/127
f 52/76/114 53/77/116 63/87/127
f 63/87/127 53/77/116 64/88/128
f 53/77/116 54/78/118 64/88/128
f 64/88/128 54/78/118 65/89/129
f 55/79/119 56/80/120 66/90/130
f 66/90/130 56/80/120 67/91/131
f 56/80/120 57/81/121 67/91/131
f 67/91/131 57/81/121 68/92/132
f 57/81/121 58/82/122 68/92/132
f 68/92/132 58/82/122 69/93/133
f 58/82/122 59/83/123 69/93/133
f 69/93/133 59/83/123 70/94/134
f 59/83/123 60/84/124 70/94/134
f 70/94/134 60/84/124 71/95/135
f 60/84/124 61/85/125 71/95/135
f 71/95/135 61/85/125 72/96/136
f 61/85/125 62/86/126 72/96/136
f 72/96/136 62/86/126 73/97/137
f 62/86/126 63/87/127 73/97/137
f 73/97/137 63/87/127 74/98/138
f 63/87/127 64/88/128 74/98/138
f 74/98/138 64/88/128 75/99/139
f 64/88/128 65/89/129 75/99/139
f 75/99/139 65/89/129 76/100/140
f 66/90/130 67/91/131 77/101/141
f 77/101/141 67/91/131 78/102/142
f 67/91/131 68/92/132 78/102/142
f 78/102/142 68/92/132 79/103/143
f 68/92/132 69/93/133 79/103/143
f 79/103/143 69/93/133 80/104/144
f 69/93/133 70/94/134 80/104/144
f 80/104/144 70/94/134 81/105/145
f 70/94/134 71/95/135 81/105/145
f 81/105/145 71/95/135 82/106/146
f 71/95/135 72/96/136 82/106/146
f 82/106/146 72/96/136 83/107/147
f 72/96/136 73/97/137 83/107/147
f 83/107/147 73/97/137 84/108/148
f 73/97/137 74/98/138 84/108/148
f 84/108/148 74/98/138 85/109/149
f 74/98/138 75/99/139 85/109/149
f 85/109/149 75/99/139 86/110/150
f 75/99/139 76/100/140 86/110/150
f 86/110/150 76/100/140 87/111/151
f 77/101/141 78/102/142 88/112/152
f 88/112/152 78/102/142 89/113/153
f 78/102/142 79/103/143 89/113/153
f 89/113/153 79/103/143 90/114/154
f 79/103/143 80/104/144 90/114/154
f 90/114/154 80/104/144 91/115/155
f 80/104/144 81/105/145 91/115/155
f 91/115/155 81/105/145 92/116/156
f 81/105/145 82/106/146 92/116/156
f 92/116/156 82/106/146 93/117/157
f 82/106/146 83/107/147 93/117/157
f 93/117/157 83/107/147 94/118/158
f 83/107/147 84/108/148 94/118/158
f 94/118/158 84/108/148 95/119/159
f 84/108/148 85/109/149 95/119/159
f 95/119/159 85/109/149 96/120/160
f 85/109/149 86/110/150 96/120/160
f 96/120/160 86/110/150 97/121/161
f 86/110/150 87/111/151 97/121/161
f 97/121/161 87/111/151 98/122/162
f 88/112/152 89/113/153 99/123/163
f 99/123/163 89/113/153 100/124/164
f 89/113/153 90/114/154 100/124/164
f 100/124/164 90/114/154 101/125/165
f 90/114/154 91/115/155 101/125/165
f 101/125/165 91/115/155 102/126/166
f 91/115/155 92/116/156 102/126/166
f 102/126/166 92/116/156 103/127/167
f 92/116/156 93/117/157 103/127/167
f 103/127/167 93/117/157 104/128/168
f 93/117/157 94/118/158 104/128/168
f 104/128/168 94/118/158 105/129/169
f 94/118/158 95/119/159 105/129/169
f 105/129/169 95/119/159 106/130/170
f 95/119/159 96/120/160 106/130/170
f 106/130/170 96/120/160 107/131/171
f 96/120/160 97/121/161 107/131/171
f 107/131/171 97/121/161 108/132/172
f 97/121/161 98/122/162 108/132/172
f 108/132/172 98/122/162 109/133/173
f 99/123/163 100/124/164 110/134/174
f 110/134/174 100/124/164 111/135/175
f 100/124/164 101/125/165 111/135/175
f 111/135/175 101/125/165 112/136/176
f 101/125/165 102/126/166 112/136/176
f 112/136/176 102/126/166 113/137/177
f 102/126/166 103/127/167 113/137/177
f 113/137/177 103/127/167 114/138/178
f 103/127/167 104/128/168 114/138/178
f 114/138/178 104/128/168 115/139/179
f 104/128/168 105/129/169 115/139/179
f 115/139/179 105/129/169 116/140/180
f 105/129/169 106/130/170 116/140/180
f 116/140/180 106/130/170 117/141/181
f 106/130/170 107/131/171 117/141/181
f 117/141/181 107/131/171 118/142/182
f 107/131/171 108/132/172 118/142/182
f 118/142/182 108/132/172 119/143/183
f 108/132/172 109/133/173 119/143/183
f 119/143/183 109/133/173 120/144/184
f 110/134/174 111/135/175 121/145/185
f 121/145/185 111/135/175 122/146/186
f 111/135/175 112/136/176 122/146/186
f 122/146/186 112/136/176 123/147/187
f 112/136/176 113/137/177 123/147/187
f 123/147/187 113/137/177 124/148/188
f 113/137/177 114/138/178 124/148/188
f 124/148/188 114/138/178 125/149/189
f 114/138/178 115/139/179 125/149/189
f 125/149/189 115/139/179 126/150/190
f 115/139/179 116/140/180 126/150/190
f 126/150/190 116/140/180 127/151/191
f 116/140/180 117/141/181 127/151/191
f 127/151/191 117/141/181 128/152/192
f 117/141/181 118/142/182 128/152/192
f 128/152/192 118/142/182 129/153/193
f 118/142/182 119/143/183 129/153/193
f 129/153/193 119/143/183 130/154/194
f 119/143/183 120/144/184 130/154/194
f 130/154/194 120/144/184 131/155/195
f 121/145/185 122/146/186 132/156/196
f 132/156/196 122/146/186 133/157/197
f 122/146/186 123/147/187 133/157/197
f 133/157/197 123/147/187 134/158/198
f 123/147/187 124/148/188 134/158/198
f 134/158/198 124/148/188 135/159/199
f 124/148/188 125/149/189 135/159/199
f 135/159/199 125/149/189 136/160/200
f 125/149/189 126/150/190 136/160/200
f 136/160/200 126/150/190 137/161/201
f 126/150/190 127/151/191 137/161/201
f 137/161/201 127/151/191 138/162/202
f 127/151/191 128/152/192 138/162/202
f 138/162/202 128/152/192 139/163/203
f 128/152/192 129/153/193 139/163/203
f 139/163/203 129/153/193 140/164/204
f 129/153/193 130/154/194 140/164/204
f 140/164/204 130/154/194 141/165/205
f 130/154/194 131/155/195 141/165/205
f 141/165/205 131/155/195 142/166/206
f 132/156/196 133/157/197 143/167/207
f 143/167/207 133/157/197 144/168/208
f 133/157/197 134/158/198 144/168/208
f 144/168/208 134/158/198 145/169/209
f 134/158/198 135/159/199 145/169/209
f 145/169/209 135/159/199 146/170/210
f 135/159/199 136/160/200 146/170/210
f 146/170/210 136/160/200 147/171/211
f 136/160/200 137/161/201 147/171/211
f 147/171/211 137/161/201 148/172/212
f 137/161/201 138/162/202 148/172/212
f 148/172/212 138/162/202 149/173/213
f 138/162/202 139/163/203 149/173/213
f 149/173/213 139/163/203 150/174/214
f 139/163/203 140/164/204 150/174/214
f 150/174/214 140/164/204 151/175/215
f 140/164/204 141/165/205 151/175/215
f 151/175/215 141/165/205 152/176/216
f 141/165/205 142/166/206 152/176/216
f 152/176/216 142/166/206 153/177/217
